<svg aria-hidden="true" style="position: absolute; width: 0; height: 0; overflow: hidden;" version="1.1" xmlns="http://www.w3.org/2000/svg" xmlns:xlink="http://www.w3.org/1999/xlink">
<defs>
<symbol id="icon-Bag" viewBox="0 0 32 32">
<path d="M16.007 2.667c3.573 0 6.511 2.808 6.66 6.366h-0.035c0.004 0.103-0.016 0.206-0.058 0.301h0.208c1.623 0 3.322 1.125 4.003 3.84l0.074 0.32 1.025 8.26c0.738 5.268-2.144 7.483-6.076 7.577l-0.264 0.003h-11.053c-3.996 0-7.075-1.456-6.398-7.222l0.046-0.358 1.037-8.26c0.511-2.924 2.228-4.077 3.882-4.156l0.183-0.004h0.104c-0.018-0.1-0.018-0.201 0-0.301 0.149-3.558 3.087-6.366 6.66-6.366zM12.129 13.772c-0.651 0-1.178 0.543-1.178 1.213s0.528 1.213 1.178 1.213c0.651 0 1.178-0.543 1.178-1.213l-0.009-0.152c-0.073-0.598-0.568-1.061-1.169-1.061zM19.848 13.772c-0.651 0-1.178 0.543-1.178 1.213s0.528 1.213 1.178 1.213c0.651 0 1.178-0.543 1.178-1.213s-0.528-1.213-1.178-1.213zM15.954 4.403c-2.565 0-4.645 2.073-4.645 4.629 0.018 0.1 0.018 0.201 0 0.301h9.349c-0.037-0.096-0.057-0.198-0.058-0.301 0-2.557-2.080-4.629-4.645-4.629z"></path>
</symbol>
<symbol id="icon-bx_bx-plus" viewBox="0 0 32 32">
<path d="M28.078 15.598c0-0.984-0.798-1.783-1.783-1.783h-8.913v-8.913c0-0.985-0.798-1.783-1.783-1.783s-1.783 0.798-1.783 1.783v8.913h-8.913c-0.985 0-1.783 0.798-1.783 1.783s0.798 1.783 1.783 1.783h8.913v8.913c0 0.984 0.798 1.783 1.783 1.783s1.783-0.798 1.783-1.783v-8.913h8.913c0.985 0 1.783-0.798 1.783-1.783z"></path>
</symbol>
<symbol id="icon-bi_check" viewBox="0 0 27 32">
<path d="M18.805 8.52c0.242-0.23 0.563-0.357 0.896-0.354s0.653 0.134 0.891 0.368c0.238 0.234 0.376 0.55 0.385 0.884s-0.112 0.657-0.338 0.903l-6.84 8.554c-0.118 0.127-0.26 0.228-0.417 0.299s-0.328 0.108-0.501 0.112-0.345-0.029-0.505-0.093c-0.16-0.065-0.306-0.161-0.428-0.283l-4.536-4.536c-0.126-0.118-0.228-0.26-0.298-0.417s-0.108-0.328-0.111-0.501c-0.003-0.173 0.029-0.344 0.093-0.504s0.161-0.306 0.283-0.428c0.122-0.122 0.268-0.218 0.428-0.283s0.332-0.096 0.504-0.093c0.173 0.003 0.343 0.041 0.501 0.111s0.3 0.172 0.417 0.298l3.59 3.588 5.954-7.586c0.011-0.013 0.022-0.026 0.034-0.038h-0.002z"></path>
</symbol>
<symbol id="icon-akar-icons_search" viewBox="0 0 32 32">
<path stroke-linejoin="miter" stroke-linecap="round" stroke-miterlimit="4" stroke-width="3.5556" d="M28 28l-5.981-5.992M25.333 14c0 3.006-1.194 5.889-3.319 8.014s-5.008 3.319-8.014 3.319-5.888-1.194-8.014-3.319c-2.125-2.125-3.319-5.008-3.319-8.014s1.194-5.888 3.319-8.014c2.125-2.125 5.008-3.319 8.014-3.319s5.889 1.194 8.014 3.319c2.125 2.125 3.319 5.008 3.319 8.014z"></path>
</symbol>
<symbol id="icon-eva_arrow-ios-back-outline" viewBox="0 0 32 32">
<path d="M7.111 13.325c-0.001 0.228 0.041 0.453 0.123 0.658s0.2 0.387 0.347 0.53l7.618 7.361c0.227 0.224 0.512 0.347 0.806 0.347s0.579-0.122 0.806-0.347l7.618-7.62c0.259-0.259 0.422-0.63 0.453-1.033s-0.073-0.804-0.288-1.116c-0.215-0.311-0.525-0.507-0.861-0.544s-0.67 0.087-0.929 0.346l-6.806 6.813-6.806-6.584c-0.186-0.186-0.413-0.305-0.654-0.341s-0.485 0.011-0.704 0.136c-0.219 0.125-0.404 0.323-0.532 0.57s-0.195 0.533-0.192 0.824z"></path>
</symbol>
<symbol id="icon-grommet-icons_form-next-link-3" viewBox="0 0 64 32">
<path stroke-linejoin="miter" stroke-linecap="square" stroke-miterlimit="4" stroke-width="1.3333" d="M6 16.534h50M56 16.534c0 0-5.984-3.935-7.2-7.2M56 16.534c0 0-5.29 3.698-7.2 7.2"></path>
</symbol>
<symbol id="icon-Star-1" viewBox="0 0 32 32">
<path d="M22.98 18.368c-0.332 0.322-0.485 0.788-0.409 1.244l1.14 6.311c0.096 0.535-0.13 1.076-0.577 1.385-0.439 0.321-1.022 0.359-1.501 0.103l-5.681-2.963c-0.198-0.105-0.417-0.162-0.641-0.168h-0.348c-0.121 0.018-0.239 0.056-0.346 0.116l-5.682 2.977c-0.281 0.141-0.599 0.191-0.911 0.141-0.759-0.144-1.266-0.867-1.142-1.63l1.142-6.311c0.076-0.46-0.077-0.929-0.409-1.256l-4.632-4.49c-0.387-0.376-0.522-0.94-0.345-1.449 0.172-0.508 0.611-0.879 1.14-0.962l6.375-0.925c0.485-0.050 0.911-0.345 1.129-0.781l2.809-5.759c0.067-0.128 0.153-0.246 0.257-0.346l0.115-0.090c0.060-0.067 0.13-0.122 0.207-0.167l0.14-0.051 0.218-0.090h0.54c0.482 0.050 0.907 0.339 1.129 0.77l2.846 5.734c0.205 0.419 0.604 0.711 1.065 0.781l6.375 0.925c0.539 0.077 0.989 0.449 1.167 0.962 0.168 0.514 0.023 1.079-0.372 1.449l-4.797 4.541z"></path>
</symbol>
<symbol id="icon-grommet-icons_form-next-link-1" viewBox="0 0 32 32">
<path stroke-linejoin="miter" stroke-linecap="square" stroke-miterlimit="4" stroke-width="2.5765" d="M25.765 15.975h-20.397M5.368 15.975c0 0 5.782-3.802 6.957-6.956M5.368 15.975c0 0 5.111 3.573 6.957 6.957"></path>
</symbol>
<symbol id="icon-grommet-icons_form-next-link-2" viewBox="0 0 32 32">
<path stroke-linejoin="miter" stroke-linecap="square" stroke-miterlimit="4" stroke-width="2.5765" d="M5.153 15.975h20.397M25.55 15.975c0 0-5.782-3.802-6.957-6.956M25.55 15.975c0 0-5.111 3.573-6.957 6.957"></path>
</symbol>
</defs>
</svg>
